<svg width="40" height="41" viewBox="0 0 40 41" fill="none" xmlns="http://www.w3.org/2000/svg">
<g id="telegram-svgrepo-com">
<path id="Vector" d="M18 3.5C14.4401 3.5 10.9598 4.49703 7.99974 6.36501C5.03966 8.23299 2.73256 10.888 1.37018 13.9944C0.00780644 17.1006 -0.348662 20.5189 0.345868 23.8165C1.0404 27.1143 2.75474 30.1432 5.27209 32.5209C7.78943 34.8983 10.9967 36.5174 14.4884 37.1734C17.98 37.8293 21.5993 37.4925 24.8884 36.2058C28.1774 34.9192 30.9886 32.7404 32.9666 29.9447C34.9443 27.1491 36 23.8624 36 20.5C36 15.9913 34.1035 11.6673 30.728 8.47919C27.3524 5.29105 22.7738 3.5 18 3.5ZM26.8425 15.145L23.895 28.2987C23.67 29.2337 23.085 29.4462 22.2525 29.0212L17.7525 25.8762L15.5025 27.8525C15.3965 27.9832 15.2604 28.0894 15.1045 28.1632C14.9486 28.2367 14.7769 28.2758 14.6025 28.2775L14.9175 24.0275L23.2425 16.9087C23.625 16.6112 23.2425 16.4412 22.7025 16.7387L12.4875 22.795L7.9875 21.4775C7.02 21.2012 6.9975 20.5637 8.19 20.1387L25.5375 13.7637C26.3925 13.53 27.1125 13.9975 26.8425 15.145Z" fill="#D5D5D5"/>
</g>
</svg>
