<svg width="40" height="41" viewBox="0 0 40 41" fill="none" xmlns="http://www.w3.org/2000/svg">
<g id="linkedin-svgrepo-com">
<path id="Vector" d="M10.8333 13.8334C12.2141 13.8334 13.3333 12.7141 13.3333 11.3334C13.3333 9.95266 12.2141 8.83337 10.8333 8.83337C9.45262 8.83337 8.33334 9.95266 8.33334 11.3334C8.33334 12.7141 9.45262 13.8334 10.8333 13.8334Z" fill="#D5D5D5"/>
<path id="Vector_2" d="M8.33334 17.1667C8.33334 16.2462 9.07954 15.5 10 15.5H11.6667C12.5871 15.5 13.3333 16.2462 13.3333 17.1667V30.5C13.3333 31.4205 12.5871 32.1667 11.6667 32.1667H10C9.07954 32.1667 8.33334 31.4205 8.33334 30.5V17.1667Z" fill="#D5D5D5"/>
<path id="Vector_3" d="M18.3333 32.1667H20C20.9205 32.1667 21.6667 31.4205 21.6667 30.5V23C21.6667 20.5 26.6667 18.8333 26.6667 22.1667V30.5007C26.6667 31.4212 27.4128 32.1667 28.3333 32.1667H30C30.9205 32.1667 31.6667 31.4205 31.6667 30.5V20.5C31.6667 17.1667 29.1667 15.5 25.8333 15.5C22.5 15.5 21.6667 18 21.6667 18V17.1667C21.6667 16.2462 20.9205 15.5 20 15.5H18.3333C17.4128 15.5 16.6667 16.2462 16.6667 17.1667V30.5C16.6667 31.4205 17.4128 32.1667 18.3333 32.1667Z" fill="#D5D5D5"/>
<path id="Vector_4" fill-rule="evenodd" clip-rule="evenodd" d="M33.3333 2.16663C36.0948 2.16663 38.3333 4.40521 38.3333 7.16662V33.8333C38.3333 36.5948 36.0948 38.8333 33.3333 38.8333H6.66666C3.90525 38.8333 1.66667 36.5948 1.66667 33.8333V7.16662C1.66667 4.40521 3.90525 2.16663 6.66666 2.16663H33.3333ZM33.3333 5.49996C34.2538 5.49996 35 6.24616 35 7.16662V33.8333C35 34.7538 34.2538 35.4999 33.3333 35.4999H6.66666C5.7462 35.4999 5 34.7538 5 33.8333V7.16662C5 6.24616 5.7462 5.49996 6.66666 5.49996H33.3333Z" fill="#D5D5D5"/>
</g>
</svg>
